<?xml version="1.0" encoding="UTF-8" standalone="no"?>
<!DOCTYPE svg PUBLIC "-//W3C//DTD SVG 1.1//EN"
 "http://www.w3.org/Graphics/SVG/1.1/DTD/svg11.dtd">
<!-- Generated by graphviz version 3.0.0 (20220226.1711)
 -->
<!-- Title: pt Pages: 1 -->
<svg width="567pt" height="726pt"
 viewBox="0.00 0.00 566.90 726.00" xmlns="http://www.w3.org/2000/svg" xmlns:xlink="http://www.w3.org/1999/xlink">
<g id="graph0" class="graph" transform="scale(1 1) rotate(0) translate(4 722)">
<title>pt</title>
<!-- 739d4e1f&#45;2a31&#45;47ba&#45;95d1&#45;f980a714ea9c -->
<g id="node1" class="node">
<title>739d4e1f&#45;2a31&#45;47ba&#45;95d1&#45;f980a714ea9c</title>
<polygon fill="#bebebe" stroke="black" points="174,-645 0,-645 0,-607 174,-607 174,-645"/>
<text text-anchor="middle" x="87" y="-629.8" font-family="Times New Roman,serif" font-size="14.00">Create Purchase Requisition</text>
<text text-anchor="middle" x="87" y="-614.8" font-family="Times New Roman,serif" font-size="14.00">E=7890</text>
</g>
<!-- 739d4e1f&#45;2a31&#45;47ba&#45;95d1&#45;f980a714ea9c&#45;&gt;739d4e1f&#45;2a31&#45;47ba&#45;95d1&#45;f980a714ea9c -->
<g id="edge10" class="edge">
<title>739d4e1f&#45;2a31&#45;47ba&#45;95d1&#45;f980a714ea9c&#45;&gt;739d4e1f&#45;2a31&#45;47ba&#45;95d1&#45;f980a714ea9c</title>
<path fill="none" stroke="#a13ccd" stroke-width="3" d="M174.3,-631.84C184.99,-630.79 192,-628.85 192,-626 192,-624.18 189.12,-622.72 184.25,-621.64"/>
<polygon fill="#a13ccd" stroke="#a13ccd" stroke-width="3" points="184.71,-618.17 174.3,-620.16 183.68,-625.09 184.71,-618.17"/>
<text text-anchor="middle" x="219" y="-622.3" font-family="Times New Roman,serif" font-size="14.00" fill="#a13ccd">EC=4504</text>
</g>
<!-- bf0eb8be&#45;c1af&#45;42ca&#45;b2d5&#45;77bded1dd34f -->
<g id="node2" class="node">
<title>bf0eb8be&#45;c1af&#45;42ca&#45;b2d5&#45;77bded1dd34f</title>
<polygon fill="#696969" stroke="black" points="253,-556 109,-556 109,-518 253,-518 253,-556"/>
<text text-anchor="middle" x="181" y="-540.8" font-family="Times New Roman,serif" font-size="14.00">Create Purchase Order</text>
<text text-anchor="middle" x="181" y="-525.8" font-family="Times New Roman,serif" font-size="14.00">E=18483</text>
</g>
<!-- 739d4e1f&#45;2a31&#45;47ba&#45;95d1&#45;f980a714ea9c&#45;&gt;bf0eb8be&#45;c1af&#45;42ca&#45;b2d5&#45;77bded1dd34f -->
<g id="edge8" class="edge">
<title>739d4e1f&#45;2a31&#45;47ba&#45;95d1&#45;f980a714ea9c&#45;&gt;bf0eb8be&#45;c1af&#45;42ca&#45;b2d5&#45;77bded1dd34f</title>
<path fill="none" stroke="#a13ccd" stroke-width="2" d="M135.15,-606.86C143.85,-602.02 152.28,-596.11 159,-589 165.12,-582.52 169.69,-574.08 173.03,-565.92"/>
<polygon fill="#a13ccd" stroke="#a13ccd" stroke-width="2" points="176.41,-566.88 176.52,-556.28 169.82,-564.5 176.41,-566.88"/>
<text text-anchor="middle" x="196" y="-577.8" font-family="Times New Roman,serif" font-size="14.00" fill="#a13ccd">EC=1827</text>
</g>
<!-- ba275fa2&#45;157c&#45;4fa2&#45;8734&#45;006b0ce4c071 -->
<g id="node9" class="node">
<title>ba275fa2&#45;157c&#45;4fa2&#45;8734&#45;006b0ce4c071</title>
<text text-anchor="middle" x="71" y="-444.3" font-family="Times New Roman,serif" font-size="14.00" fill="#a13ccd">MATERIAL</text>
</g>
<!-- 739d4e1f&#45;2a31&#45;47ba&#45;95d1&#45;f980a714ea9c&#45;&gt;ba275fa2&#45;157c&#45;4fa2&#45;8734&#45;006b0ce4c071 -->
<g id="edge3" class="edge">
<title>739d4e1f&#45;2a31&#45;47ba&#45;95d1&#45;f980a714ea9c&#45;&gt;ba275fa2&#45;157c&#45;4fa2&#45;8734&#45;006b0ce4c071</title>
<path fill="none" stroke="#a13ccd" stroke-dasharray="5,2" d="M85.35,-606.83C82.53,-575.87 76.79,-512.72 73.49,-476.38"/>
<polygon fill="#a13ccd" stroke="#a13ccd" points="76.94,-475.68 72.55,-466.03 69.97,-476.31 76.94,-475.68"/>
</g>
<!-- bf0eb8be&#45;c1af&#45;42ca&#45;b2d5&#45;77bded1dd34f&#45;&gt;739d4e1f&#45;2a31&#45;47ba&#45;95d1&#45;f980a714ea9c -->
<g id="edge13" class="edge">
<title>bf0eb8be&#45;c1af&#45;42ca&#45;b2d5&#45;77bded1dd34f&#45;&gt;739d4e1f&#45;2a31&#45;47ba&#45;95d1&#45;f980a714ea9c</title>
<path fill="none" stroke="#a13ccd" stroke-width="2" d="M123.79,-556.1C115.25,-560.83 107.24,-566.71 101,-574 95.54,-580.38 92.2,-588.7 90.15,-596.77"/>
<polygon fill="#a13ccd" stroke="#a13ccd" stroke-width="2" points="86.7,-596.2 88.2,-606.69 93.56,-597.55 86.7,-596.2"/>
<text text-anchor="middle" x="128" y="-577.8" font-family="Times New Roman,serif" font-size="14.00" fill="#a13ccd">EC=1961</text>
</g>
<!-- bf0eb8be&#45;c1af&#45;42ca&#45;b2d5&#45;77bded1dd34f&#45;&gt;bf0eb8be&#45;c1af&#45;42ca&#45;b2d5&#45;77bded1dd34f -->
<g id="edge12" class="edge">
<title>bf0eb8be&#45;c1af&#45;42ca&#45;b2d5&#45;77bded1dd34f&#45;&gt;bf0eb8be&#45;c1af&#45;42ca&#45;b2d5&#45;77bded1dd34f</title>
<path fill="none" stroke="#a13ccd" stroke-width="10" d="M253.03,-544.48C263.75,-543.32 271,-540.82 271,-537 271,-534.55 268.02,-532.65 263.07,-531.29"/>
<polygon fill="#a13ccd" stroke="#a13ccd" stroke-width="10" points="264.39,-522.64 253.03,-529.52 261.35,-539.87 264.39,-522.64"/>
<text text-anchor="middle" x="301.5" y="-533.3" font-family="Times New Roman,serif" font-size="14.00" fill="#a13ccd">EC=15150</text>
</g>
<!-- 84055da6&#45;5e4c&#45;4be1&#45;a6d3&#45;52c6df7e09e6 -->
<g id="node3" class="node">
<title>84055da6&#45;5e4c&#45;4be1&#45;a6d3&#45;52c6df7e09e6</title>
<polygon fill="#b3b3b3" stroke="black" points="434.5,-467 345.5,-467 345.5,-429 434.5,-429 434.5,-467"/>
<text text-anchor="middle" x="390" y="-451.8" font-family="Times New Roman,serif" font-size="14.00">Create Order</text>
<text text-anchor="middle" x="390" y="-436.8" font-family="Times New Roman,serif" font-size="14.00">E=9286</text>
</g>
<!-- bf0eb8be&#45;c1af&#45;42ca&#45;b2d5&#45;77bded1dd34f&#45;&gt;84055da6&#45;5e4c&#45;4be1&#45;a6d3&#45;52c6df7e09e6 -->
<g id="edge11" class="edge">
<title>bf0eb8be&#45;c1af&#45;42ca&#45;b2d5&#45;77bded1dd34f&#45;&gt;84055da6&#45;5e4c&#45;4be1&#45;a6d3&#45;52c6df7e09e6</title>
<path fill="none" stroke="#a13ccd" stroke-width="3" d="M238.73,-517.94C254.54,-512.58 271.56,-506.41 287,-500 307.18,-491.62 328.94,-481.08 347.24,-471.76"/>
<polygon fill="#a13ccd" stroke="#a13ccd" stroke-width="3" points="348.9,-474.84 356.19,-467.15 345.7,-468.61 348.9,-474.84"/>
<text text-anchor="middle" x="345" y="-488.8" font-family="Times New Roman,serif" font-size="14.00" fill="#a13ccd">EC=3900</text>
</g>
<!-- bf0eb8be&#45;c1af&#45;42ca&#45;b2d5&#45;77bded1dd34f&#45;&gt;ba275fa2&#45;157c&#45;4fa2&#45;8734&#45;006b0ce4c071 -->
<g id="edge4" class="edge">
<title>bf0eb8be&#45;c1af&#45;42ca&#45;b2d5&#45;77bded1dd34f&#45;&gt;ba275fa2&#45;157c&#45;4fa2&#45;8734&#45;006b0ce4c071</title>
<path fill="none" stroke="#a13ccd" stroke-width="2" stroke-dasharray="5,2" d="M158.21,-517.97C141.51,-504.77 118.69,-486.72 100.59,-472.4"/>
<polygon fill="#a13ccd" stroke="#a13ccd" stroke-width="2" points="102.65,-469.57 92.64,-466.12 98.31,-475.06 102.65,-469.57"/>
</g>
<!-- 84055da6&#45;5e4c&#45;4be1&#45;a6d3&#45;52c6df7e09e6&#45;&gt;84055da6&#45;5e4c&#45;4be1&#45;a6d3&#45;52c6df7e09e6 -->
<g id="edge9" class="edge">
<title>84055da6&#45;5e4c&#45;4be1&#45;a6d3&#45;52c6df7e09e6&#45;&gt;84055da6&#45;5e4c&#45;4be1&#45;a6d3&#45;52c6df7e09e6</title>
<path fill="none" stroke="#a13ccd" stroke-width="2" d="M434.66,-456.07C444.95,-455.37 452.5,-452.68 452.5,-448 452.5,-445.07 449.55,-442.92 444.83,-441.56"/>
<polygon fill="#a13ccd" stroke="#a13ccd" stroke-width="2" points="445.09,-438.05 434.66,-439.93 443.99,-444.97 445.09,-438.05"/>
<text text-anchor="middle" x="479.5" y="-444.3" font-family="Times New Roman,serif" font-size="14.00" fill="#a13ccd">EC=2884</text>
</g>
<!-- 86235d67&#45;a5fb&#45;4f4e&#45;b3d3&#45;693a1f5f6554 -->
<g id="node4" class="node">
<title>86235d67&#45;a5fb&#45;4f4e&#45;b3d3&#45;693a1f5f6554</title>
<polygon fill="#b6b6b6" stroke="black" points="356,-378 254,-378 254,-340 356,-340 356,-378"/>
<text text-anchor="middle" x="305" y="-362.8" font-family="Times New Roman,serif" font-size="14.00">Create Delivery</text>
<text text-anchor="middle" x="305" y="-347.8" font-family="Times New Roman,serif" font-size="14.00">E=8993</text>
</g>
<!-- 84055da6&#45;5e4c&#45;4be1&#45;a6d3&#45;52c6df7e09e6&#45;&gt;86235d67&#45;a5fb&#45;4f4e&#45;b3d3&#45;693a1f5f6554 -->
<g id="edge6" class="edge">
<title>84055da6&#45;5e4c&#45;4be1&#45;a6d3&#45;52c6df7e09e6&#45;&gt;86235d67&#45;a5fb&#45;4f4e&#45;b3d3&#45;693a1f5f6554</title>
<path fill="none" stroke="#a13ccd" stroke-width="5" d="M345.48,-432.53C328.48,-426.06 311.97,-418.26 307,-411 302.54,-404.49 300.95,-396.35 300.75,-388.49"/>
<polygon fill="#a13ccd" stroke="#a13ccd" stroke-width="5" points="305.13,-388.66 301.19,-378.48 296.38,-388.28 305.13,-388.66"/>
<text text-anchor="middle" x="334" y="-399.8" font-family="Times New Roman,serif" font-size="14.00" fill="#a13ccd">EC=7238</text>
</g>
<!-- 84055da6&#45;5e4c&#45;4be1&#45;a6d3&#45;52c6df7e09e6&#45;&gt;86235d67&#45;a5fb&#45;4f4e&#45;b3d3&#45;693a1f5f6554 -->
<g id="edge31" class="edge">
<title>84055da6&#45;5e4c&#45;4be1&#45;a6d3&#45;52c6df7e09e6&#45;&gt;86235d67&#45;a5fb&#45;4f4e&#45;b3d3&#45;693a1f5f6554</title>
<path fill="none" stroke="#39f6c0" stroke-width="6" d="M382.22,-428.6C377.22,-418.22 369.97,-405.47 361,-396 356.93,-391.7 352.24,-387.68 347.35,-384"/>
<polygon fill="#39f6c0" stroke="#39f6c0" stroke-width="6" points="350.2,-379.58 339,-378.13 344.16,-388.17 350.2,-379.58"/>
<text text-anchor="middle" x="398" y="-399.8" font-family="Times New Roman,serif" font-size="14.00" fill="#39f6c0">EC=8818</text>
</g>
<!-- 86235d67&#45;a5fb&#45;4f4e&#45;b3d3&#45;693a1f5f6554&#45;&gt;bf0eb8be&#45;c1af&#45;42ca&#45;b2d5&#45;77bded1dd34f -->
<g id="edge7" class="edge">
<title>86235d67&#45;a5fb&#45;4f4e&#45;b3d3&#45;693a1f5f6554&#45;&gt;bf0eb8be&#45;c1af&#45;42ca&#45;b2d5&#45;77bded1dd34f</title>
<path fill="none" stroke="#a13ccd" stroke-width="3" d="M296.69,-378.25C286.29,-400.23 267.24,-437.85 246,-467 234.76,-482.42 220.37,-498.03 207.99,-510.49"/>
<polygon fill="#a13ccd" stroke="#a13ccd" stroke-width="3" points="205.23,-508.29 200.58,-517.81 210.16,-513.26 205.23,-508.29"/>
<text text-anchor="middle" x="297" y="-444.3" font-family="Times New Roman,serif" font-size="14.00" fill="#a13ccd">EC=3833</text>
</g>
<!-- 86235d67&#45;a5fb&#45;4f4e&#45;b3d3&#45;693a1f5f6554&#45;&gt;84055da6&#45;5e4c&#45;4be1&#45;a6d3&#45;52c6df7e09e6 -->
<g id="edge5" class="edge">
<title>86235d67&#45;a5fb&#45;4f4e&#45;b3d3&#45;693a1f5f6554&#45;&gt;84055da6&#45;5e4c&#45;4be1&#45;a6d3&#45;52c6df7e09e6</title>
<path fill="none" stroke="#a13ccd" stroke-width="4" d="M356.26,-367.35C389.28,-373.25 427.86,-382.75 438,-396 444.93,-405.05 440.34,-414.31 431.75,-422.42"/>
<polygon fill="#a13ccd" stroke="#a13ccd" stroke-width="4" points="429.3,-419.9 423.76,-428.92 433.72,-425.33 429.3,-419.9"/>
<text text-anchor="middle" x="468" y="-399.8" font-family="Times New Roman,serif" font-size="14.00" fill="#a13ccd">EC=5619</text>
</g>
<!-- 86235d67&#45;a5fb&#45;4f4e&#45;b3d3&#45;693a1f5f6554&#45;&gt;86235d67&#45;a5fb&#45;4f4e&#45;b3d3&#45;693a1f5f6554 -->
<g id="edge14" class="edge">
<title>86235d67&#45;a5fb&#45;4f4e&#45;b3d3&#45;693a1f5f6554&#45;&gt;86235d67&#45;a5fb&#45;4f4e&#45;b3d3&#45;693a1f5f6554</title>
<path fill="none" stroke="#a13ccd" stroke-width="2" d="M356.15,-366.94C366.55,-366.07 374,-363.43 374,-359 374,-356.23 371.09,-354.16 366.37,-352.79"/>
<polygon fill="#a13ccd" stroke="#a13ccd" stroke-width="2" points="366.6,-349.28 356.15,-351.06 365.43,-356.18 366.6,-349.28"/>
<text text-anchor="middle" x="401" y="-355.3" font-family="Times New Roman,serif" font-size="14.00" fill="#a13ccd">EC=2675</text>
</g>
<!-- 70088291&#45;a570&#45;4484&#45;8b76&#45;92d19cb33db5 -->
<g id="node5" class="node">
<title>70088291&#45;a570&#45;4484&#45;8b76&#45;92d19cb33db5</title>
<polygon fill="#dcdcdc" stroke="black" points="350,-200 212,-200 212,-162 350,-162 350,-200"/>
<text text-anchor="middle" x="281" y="-184.8" font-family="Times New Roman,serif" font-size="14.00">WMS Transfer Order</text>
<text text-anchor="middle" x="281" y="-169.8" font-family="Times New Roman,serif" font-size="14.00">E=4223</text>
</g>
<!-- 86235d67&#45;a5fb&#45;4f4e&#45;b3d3&#45;693a1f5f6554&#45;&gt;70088291&#45;a570&#45;4484&#45;8b76&#45;92d19cb33db5 -->
<g id="edge27" class="edge">
<title>86235d67&#45;a5fb&#45;4f4e&#45;b3d3&#45;693a1f5f6554&#45;&gt;70088291&#45;a570&#45;4484&#45;8b76&#45;92d19cb33db5</title>
<path fill="none" stroke="#05b202" stroke-width="2" d="M288.59,-339.94C277.86,-326.85 264.8,-308.15 259,-289 250.95,-262.4 259.32,-231.19 267.96,-209.36"/>
<polygon fill="#05b202" stroke="#05b202" stroke-width="2" points="271.23,-210.62 271.89,-200.05 264.78,-207.9 271.23,-210.62"/>
<text text-anchor="middle" x="286" y="-266.3" font-family="Times New Roman,serif" font-size="14.00" fill="#05b202">EC=2635</text>
</g>
<!-- 223193b7&#45;67d3&#45;4813&#45;9b54&#45;62ae4497eca0 -->
<g id="node6" class="node">
<title>223193b7&#45;67d3&#45;4813&#45;9b54&#45;62ae4497eca0</title>
<polygon fill="#888888" stroke="black" points="440.5,-289 321.5,-289 321.5,-251 440.5,-251 440.5,-289"/>
<text text-anchor="middle" x="381" y="-273.8" font-family="Times New Roman,serif" font-size="14.00">Goods Movement</text>
<text text-anchor="middle" x="381" y="-258.8" font-family="Times New Roman,serif" font-size="14.00">E=14619</text>
</g>
<!-- 86235d67&#45;a5fb&#45;4f4e&#45;b3d3&#45;693a1f5f6554&#45;&gt;223193b7&#45;67d3&#45;4813&#45;9b54&#45;62ae4497eca0 -->
<g id="edge26" class="edge">
<title>86235d67&#45;a5fb&#45;4f4e&#45;b3d3&#45;693a1f5f6554&#45;&gt;223193b7&#45;67d3&#45;4813&#45;9b54&#45;62ae4497eca0</title>
<path fill="none" stroke="#05b202" stroke-width="4" d="M300.45,-339.68C298.94,-329.33 298.94,-316.58 305,-307 307.81,-302.56 311.32,-298.66 315.3,-295.24"/>
<polygon fill="#05b202" stroke="#05b202" stroke-width="4" points="317.48,-297.98 323.43,-289.21 313.31,-292.35 317.48,-297.98"/>
<text text-anchor="middle" x="332" y="-310.8" font-family="Times New Roman,serif" font-size="14.00" fill="#05b202">EC=6012</text>
</g>
<!-- 86235d67&#45;a5fb&#45;4f4e&#45;b3d3&#45;693a1f5f6554&#45;&gt;223193b7&#45;67d3&#45;4813&#45;9b54&#45;62ae4497eca0 -->
<g id="edge32" class="edge">
<title>86235d67&#45;a5fb&#45;4f4e&#45;b3d3&#45;693a1f5f6554&#45;&gt;223193b7&#45;67d3&#45;4813&#45;9b54&#45;62ae4497eca0</title>
<path fill="none" stroke="#39f6c0" stroke-width="6" d="M338.57,-339.97C345.98,-334.88 353.3,-328.84 359,-322 364.62,-315.26 369.02,-306.87 372.37,-298.85"/>
<polygon fill="#39f6c0" stroke="#39f6c0" stroke-width="6" points="377.32,-300.6 375.93,-289.39 367.49,-296.9 377.32,-300.6"/>
<text text-anchor="middle" x="395" y="-310.8" font-family="Times New Roman,serif" font-size="14.00" fill="#39f6c0">EC=8629</text>
</g>
<!-- 70088291&#45;a570&#45;4484&#45;8b76&#45;92d19cb33db5&#45;&gt;223193b7&#45;67d3&#45;4813&#45;9b54&#45;62ae4497eca0 -->
<g id="edge28" class="edge">
<title>70088291&#45;a570&#45;4484&#45;8b76&#45;92d19cb33db5&#45;&gt;223193b7&#45;67d3&#45;4813&#45;9b54&#45;62ae4497eca0</title>
<path fill="none" stroke="#05b202" stroke-width="2" d="M274.68,-200.07C272.2,-210.59 271.33,-223.6 278,-233 282.74,-239.68 296.05,-245.96 311.59,-251.35"/>
<polygon fill="#05b202" stroke="#05b202" stroke-width="2" points="310.9,-254.8 321.5,-254.58 313.07,-248.15 310.9,-254.8"/>
<text text-anchor="middle" x="305" y="-221.8" font-family="Times New Roman,serif" font-size="14.00" fill="#05b202">EC=3247</text>
</g>
<!-- b38c87da&#45;7c88&#45;4b0d&#45;97ac&#45;fd98d21437ba -->
<g id="node7" class="node">
<title>b38c87da&#45;7c88&#45;4b0d&#45;97ac&#45;fd98d21437ba</title>
<polygon fill="#b9b9b9" stroke="black" points="442,-111 344,-111 344,-73 442,-73 442,-111"/>
<text text-anchor="middle" x="393" y="-95.8" font-family="Times New Roman,serif" font-size="14.00">Create Invoice</text>
<text text-anchor="middle" x="393" y="-80.8" font-family="Times New Roman,serif" font-size="14.00">E=8622</text>
</g>
<!-- 70088291&#45;a570&#45;4484&#45;8b76&#45;92d19cb33db5&#45;&gt;b38c87da&#45;7c88&#45;4b0d&#45;97ac&#45;fd98d21437ba -->
<g id="edge25" class="edge">
<title>70088291&#45;a570&#45;4484&#45;8b76&#45;92d19cb33db5&#45;&gt;b38c87da&#45;7c88&#45;4b0d&#45;97ac&#45;fd98d21437ba</title>
<path fill="none" stroke="#05b202" d="M274.57,-161.85C272.05,-151.3 271.17,-138.29 278,-129 291.05,-111.24 312.82,-102.01 333.94,-97.28"/>
<polygon fill="#05b202" stroke="#05b202" points="334.73,-100.69 343.88,-95.36 333.4,-93.82 334.73,-100.69"/>
<text text-anchor="middle" x="305" y="-132.8" font-family="Times New Roman,serif" font-size="14.00" fill="#05b202">EC=1136</text>
</g>
<!-- 731599e0&#45;db96&#45;4204&#45;a2ef&#45;9cd616801fc8 -->
<g id="node11" class="node">
<title>731599e0&#45;db96&#45;4204&#45;a2ef&#45;9cd616801fc8</title>
<text text-anchor="middle" x="476" y="-14.3" font-family="Times New Roman,serif" font-size="14.00" fill="#05b202">HANDL_UNIT</text>
</g>
<!-- 70088291&#45;a570&#45;4484&#45;8b76&#45;92d19cb33db5&#45;&gt;731599e0&#45;db96&#45;4204&#45;a2ef&#45;9cd616801fc8 -->
<g id="edge19" class="edge">
<title>70088291&#45;a570&#45;4484&#45;8b76&#45;92d19cb33db5&#45;&gt;731599e0&#45;db96&#45;4204&#45;a2ef&#45;9cd616801fc8</title>
<path fill="none" stroke="#05b202" stroke-width="6" stroke-dasharray="5,2" d="M270.58,-161.97C266.2,-151.95 263.12,-139.43 268,-129 284.44,-93.84 301.53,-92.65 335,-73 359.65,-58.52 388.89,-46.58 414.34,-37.64"/>
<polygon fill="#05b202" stroke="#05b202" stroke-width="6" points="416.13,-42.57 423.88,-34.36 412.72,-32.64 416.13,-42.57"/>
</g>
<!-- 223193b7&#45;67d3&#45;4813&#45;9b54&#45;62ae4497eca0&#45;&gt;70088291&#45;a570&#45;4484&#45;8b76&#45;92d19cb33db5 -->
<g id="edge23" class="edge">
<title>223193b7&#45;67d3&#45;4813&#45;9b54&#45;62ae4497eca0&#45;&gt;70088291&#45;a570&#45;4484&#45;8b76&#45;92d19cb33db5</title>
<path fill="none" stroke="#05b202" stroke-width="4" d="M367.07,-250.92C358.68,-240.64 347.43,-227.89 336,-218 331.13,-213.78 325.74,-209.68 320.28,-205.84"/>
<polygon fill="#05b202" stroke="#05b202" stroke-width="4" points="321.98,-202.76 311.73,-200.04 318.05,-208.55 321.98,-202.76"/>
<text text-anchor="middle" x="377" y="-221.8" font-family="Times New Roman,serif" font-size="14.00" fill="#05b202">EC=5648</text>
</g>
<!-- 223193b7&#45;67d3&#45;4813&#45;9b54&#45;62ae4497eca0&#45;&gt;223193b7&#45;67d3&#45;4813&#45;9b54&#45;62ae4497eca0 -->
<g id="edge22" class="edge">
<title>223193b7&#45;67d3&#45;4813&#45;9b54&#45;62ae4497eca0&#45;&gt;223193b7&#45;67d3&#45;4813&#45;9b54&#45;62ae4497eca0</title>
<path fill="none" stroke="#05b202" d="M440.79,-277.73C451.23,-276.7 458.5,-274.12 458.5,-270 458.5,-267.42 455.66,-265.45 450.98,-264.08"/>
<polygon fill="#05b202" stroke="#05b202" points="451.25,-260.57 440.79,-262.27 450.02,-267.46 451.25,-260.57"/>
<text text-anchor="middle" x="485.5" y="-266.3" font-family="Times New Roman,serif" font-size="14.00" fill="#05b202">EC=1098</text>
</g>
<!-- 223193b7&#45;67d3&#45;4813&#45;9b54&#45;62ae4497eca0&#45;&gt;b38c87da&#45;7c88&#45;4b0d&#45;97ac&#45;fd98d21437ba -->
<g id="edge21" class="edge">
<title>223193b7&#45;67d3&#45;4813&#45;9b54&#45;62ae4497eca0&#45;&gt;b38c87da&#45;7c88&#45;4b0d&#45;97ac&#45;fd98d21437ba</title>
<path fill="none" stroke="#05b202" stroke-width="5" d="M428.02,-250.96C449.79,-239.87 473.37,-223.26 485,-200 492.55,-184.89 492.55,-177.11 485,-162 475.5,-142.99 457.99,-127.86 440.78,-116.67"/>
<polygon fill="#05b202" stroke="#05b202" stroke-width="5" points="442.66,-112.69 431.85,-111.18 438.07,-120.14 442.66,-112.69"/>
<text text-anchor="middle" x="517" y="-177.3" font-family="Times New Roman,serif" font-size="14.00" fill="#05b202">EC=7033</text>
</g>
<!-- 223193b7&#45;67d3&#45;4813&#45;9b54&#45;62ae4497eca0&#45;&gt;b38c87da&#45;7c88&#45;4b0d&#45;97ac&#45;fd98d21437ba -->
<g id="edge33" class="edge">
<title>223193b7&#45;67d3&#45;4813&#45;9b54&#45;62ae4497eca0&#45;&gt;b38c87da&#45;7c88&#45;4b0d&#45;97ac&#45;fd98d21437ba</title>
<path fill="none" stroke="#39f6c0" stroke-width="5" d="M397.95,-250.84C401.99,-245.48 405.77,-239.34 408,-233 423.36,-189.38 421.62,-174 411,-129 410.32,-126.13 409.38,-123.23 408.28,-120.39"/>
<polygon fill="#39f6c0" stroke="#39f6c0" stroke-width="5" points="412.17,-118.37 404.07,-111.06 404.19,-121.97 412.17,-118.37"/>
<text text-anchor="middle" x="446" y="-177.3" font-family="Times New Roman,serif" font-size="14.00" fill="#39f6c0">EC=8171</text>
</g>
<!-- 223193b7&#45;67d3&#45;4813&#45;9b54&#45;62ae4497eca0&#45;&gt;731599e0&#45;db96&#45;4204&#45;a2ef&#45;9cd616801fc8 -->
<g id="edge20" class="edge">
<title>223193b7&#45;67d3&#45;4813&#45;9b54&#45;62ae4497eca0&#45;&gt;731599e0&#45;db96&#45;4204&#45;a2ef&#45;9cd616801fc8</title>
<path fill="none" stroke="#05b202" stroke-dasharray="5,2" d="M440.85,-261.7C478.87,-253.56 525.09,-236.36 548,-200 580.44,-148.53 531.73,-80.02 499.91,-43.83"/>
<polygon fill="#05b202" stroke="#05b202" points="502.32,-41.28 493.02,-36.2 497.12,-45.97 502.32,-41.28"/>
</g>
<!-- b38c87da&#45;7c88&#45;4b0d&#45;97ac&#45;fd98d21437ba&#45;&gt;70088291&#45;a570&#45;4484&#45;8b76&#45;92d19cb33db5 -->
<g id="edge24" class="edge">
<title>b38c87da&#45;7c88&#45;4b0d&#45;97ac&#45;fd98d21437ba&#45;&gt;70088291&#45;a570&#45;4484&#45;8b76&#45;92d19cb33db5</title>
<path fill="none" stroke="#05b202" stroke-width="3" d="M374.1,-111.22C363.29,-121.3 349.27,-133.81 336,-144 330.59,-148.16 324.7,-152.33 318.86,-156.3"/>
<polygon fill="#05b202" stroke="#05b202" stroke-width="3" points="316.79,-153.47 310.39,-161.92 320.66,-159.3 316.79,-153.47"/>
<text text-anchor="middle" x="380" y="-132.8" font-family="Times New Roman,serif" font-size="14.00" fill="#05b202">EC=4027</text>
</g>
<!-- b38c87da&#45;7c88&#45;4b0d&#45;97ac&#45;fd98d21437ba&#45;&gt;731599e0&#45;db96&#45;4204&#45;a2ef&#45;9cd616801fc8 -->
<g id="edge18" class="edge">
<title>b38c87da&#45;7c88&#45;4b0d&#45;97ac&#45;fd98d21437ba&#45;&gt;731599e0&#45;db96&#45;4204&#45;a2ef&#45;9cd616801fc8</title>
<path fill="none" stroke="#05b202" stroke-width="3" stroke-dasharray="5,2" d="M413.94,-72.83C424.38,-63.78 437.13,-52.72 448.36,-42.98"/>
<polygon fill="#05b202" stroke="#05b202" stroke-width="3" points="450.94,-45.37 456.21,-36.17 446.36,-40.08 450.94,-45.37"/>
</g>
<!-- da879696&#45;cb93&#45;472d&#45;9561&#45;4f1b1f2cfbb6 -->
<g id="node13" class="node">
<title>da879696&#45;cb93&#45;472d&#45;9561&#45;4f1b1f2cfbb6</title>
<text text-anchor="middle" x="357" y="-14.3" font-family="Times New Roman,serif" font-size="14.00" fill="#39f6c0">VERKBELEG</text>
</g>
<!-- b38c87da&#45;7c88&#45;4b0d&#45;97ac&#45;fd98d21437ba&#45;&gt;da879696&#45;cb93&#45;472d&#45;9561&#45;4f1b1f2cfbb6 -->
<g id="edge30" class="edge">
<title>b38c87da&#45;7c88&#45;4b0d&#45;97ac&#45;fd98d21437ba&#45;&gt;da879696&#45;cb93&#45;472d&#45;9561&#45;4f1b1f2cfbb6</title>
<path fill="none" stroke="#39f6c0" stroke-width="5" stroke-dasharray="5,2" d="M383.92,-72.83C379.77,-64.55 374.79,-54.57 370.24,-45.47"/>
<polygon fill="#39f6c0" stroke="#39f6c0" stroke-width="5" points="374.09,-43.41 365.71,-36.42 366.27,-47.32 374.09,-43.41"/>
</g>
<!-- 88175c39&#45;62fd&#45;4b91&#45;a06e&#45;b9e4b50b4ff1 -->
<g id="node8" class="node">
<title>88175c39&#45;62fd&#45;4b91&#45;a06e&#45;b9e4b50b4ff1</title>
<polygon fill="none" stroke="transparent" points="224,-718 136,-718 136,-682 224,-682 224,-718"/>
<polyline fill="none" stroke="black" points="136,-682 224,-682 "/>
<text text-anchor="middle" x="180" y="-696.3" font-family="Times New Roman,serif" font-size="14.00" fill="#a13ccd">MATERIAL</text>
</g>
<!-- 88175c39&#45;62fd&#45;4b91&#45;a06e&#45;b9e4b50b4ff1&#45;&gt;739d4e1f&#45;2a31&#45;47ba&#45;95d1&#45;f980a714ea9c -->
<g id="edge1" class="edge">
<title>88175c39&#45;62fd&#45;4b91&#45;a06e&#45;b9e4b50b4ff1&#45;&gt;739d4e1f&#45;2a31&#45;47ba&#45;95d1&#45;f980a714ea9c</title>
<path fill="none" stroke="#a13ccd" stroke-dasharray="5,2" d="M157.96,-681.94C146.24,-672.86 131.62,-661.55 118.7,-651.54"/>
<polygon fill="#a13ccd" stroke="#a13ccd" points="120.56,-648.55 110.51,-645.2 116.27,-654.09 120.56,-648.55"/>
</g>
<!-- 88175c39&#45;62fd&#45;4b91&#45;a06e&#45;b9e4b50b4ff1&#45;&gt;bf0eb8be&#45;c1af&#45;42ca&#45;b2d5&#45;77bded1dd34f -->
<g id="edge2" class="edge">
<title>88175c39&#45;62fd&#45;4b91&#45;a06e&#45;b9e4b50b4ff1&#45;&gt;bf0eb8be&#45;c1af&#45;42ca&#45;b2d5&#45;77bded1dd34f</title>
<path fill="none" stroke="#a13ccd" stroke-width="2" stroke-dasharray="5,2" d="M217.11,-681.91C231.7,-673.11 246.88,-660.85 255,-645 262.7,-629.97 260.82,-622.85 255,-607 248.42,-589.08 234.09,-573.94 219.78,-562.45"/>
<polygon fill="#a13ccd" stroke="#a13ccd" stroke-width="2" points="221.5,-559.36 211.41,-556.11 217.27,-564.94 221.5,-559.36"/>
</g>
<!-- ab2f4fc8&#45;5aa5&#45;496d&#45;90ac&#45;b1070541a1ed -->
<g id="node10" class="node">
<title>ab2f4fc8&#45;5aa5&#45;496d&#45;90ac&#45;b1070541a1ed</title>
<polygon fill="none" stroke="transparent" points="237,-466 133,-466 133,-430 237,-430 237,-466"/>
<polyline fill="none" stroke="black" points="133,-430 237,-430 "/>
<text text-anchor="middle" x="185" y="-444.3" font-family="Times New Roman,serif" font-size="14.00" fill="#05b202">HANDL_UNIT</text>
</g>
<!-- ab2f4fc8&#45;5aa5&#45;496d&#45;90ac&#45;b1070541a1ed&#45;&gt;86235d67&#45;a5fb&#45;4f4e&#45;b3d3&#45;693a1f5f6554 -->
<g id="edge16" class="edge">
<title>ab2f4fc8&#45;5aa5&#45;496d&#45;90ac&#45;b1070541a1ed&#45;&gt;86235d67&#45;a5fb&#45;4f4e&#45;b3d3&#45;693a1f5f6554</title>
<path fill="none" stroke="#05b202" stroke-width="6" stroke-dasharray="5,2" d="M208.71,-429.81C226.76,-416.73 251.83,-398.55 271.86,-384.03"/>
<polygon fill="#05b202" stroke="#05b202" stroke-width="6" points="275.09,-388.17 280.1,-378.05 268.92,-379.67 275.09,-388.17"/>
</g>
<!-- ab2f4fc8&#45;5aa5&#45;496d&#45;90ac&#45;b1070541a1ed&#45;&gt;70088291&#45;a570&#45;4484&#45;8b76&#45;92d19cb33db5 -->
<g id="edge15" class="edge">
<title>ab2f4fc8&#45;5aa5&#45;496d&#45;90ac&#45;b1070541a1ed&#45;&gt;70088291&#45;a570&#45;4484&#45;8b76&#45;92d19cb33db5</title>
<path fill="none" stroke="#05b202" stroke-dasharray="5,2" d="M188.2,-429.85C195.97,-390.68 217.99,-292.3 256,-218 257.61,-214.86 259.46,-211.67 261.4,-208.56"/>
<polygon fill="#05b202" stroke="#05b202" points="264.41,-210.35 267.03,-200.09 258.58,-206.48 264.41,-210.35"/>
</g>
<!-- ab2f4fc8&#45;5aa5&#45;496d&#45;90ac&#45;b1070541a1ed&#45;&gt;223193b7&#45;67d3&#45;4813&#45;9b54&#45;62ae4497eca0 -->
<g id="edge17" class="edge">
<title>ab2f4fc8&#45;5aa5&#45;496d&#45;90ac&#45;b1070541a1ed&#45;&gt;223193b7&#45;67d3&#45;4813&#45;9b54&#45;62ae4497eca0</title>
<path fill="none" stroke="#05b202" stroke-width="3" stroke-dasharray="5,2" d="M191.56,-429.8C200.82,-407.2 219.49,-367.17 245,-340 264.28,-319.46 291.03,-304.07 315.71,-293.11"/>
<polygon fill="#05b202" stroke="#05b202" stroke-width="3" points="317.22,-296.26 325.04,-289.12 314.47,-289.83 317.22,-296.26"/>
</g>
<!-- f280ea0e&#45;8d53&#45;4435&#45;8a06&#45;095aa15f7502 -->
<g id="node12" class="node">
<title>f280ea0e&#45;8d53&#45;4435&#45;8a06&#45;095aa15f7502</title>
<polygon fill="none" stroke="transparent" points="448,-555 350,-555 350,-519 448,-519 448,-555"/>
<polyline fill="none" stroke="black" points="350,-519 448,-519 "/>
<text text-anchor="middle" x="399" y="-533.3" font-family="Times New Roman,serif" font-size="14.00" fill="#39f6c0">VERKBELEG</text>
</g>
<!-- f280ea0e&#45;8d53&#45;4435&#45;8a06&#45;095aa15f7502&#45;&gt;84055da6&#45;5e4c&#45;4be1&#45;a6d3&#45;52c6df7e09e6 -->
<g id="edge29" class="edge">
<title>f280ea0e&#45;8d53&#45;4435&#45;8a06&#45;095aa15f7502&#45;&gt;84055da6&#45;5e4c&#45;4be1&#45;a6d3&#45;52c6df7e09e6</title>
<path fill="none" stroke="#39f6c0" stroke-width="6" stroke-dasharray="5,2" d="M397.22,-518.81C395.99,-506.89 394.32,-490.76 392.9,-477"/>
<polygon fill="#39f6c0" stroke="#39f6c0" stroke-width="6" points="398.12,-476.46 391.87,-467.05 387.67,-477.54 398.12,-476.46"/>
</g>
</g>
</svg>
